<?xml version="1.0" encoding="UTF-8" standalone="no"?>
<!-- Creator: CorelDRAW 2019 (64-Bit Evaluation Version) -->

<svg
   xmlns:dc="http://purl.org/dc/elements/1.1/"
   xmlns:cc="http://creativecommons.org/ns#"
   xmlns:rdf="http://www.w3.org/1999/02/22-rdf-syntax-ns#"
   xmlns:svg="http://www.w3.org/2000/svg"
   xmlns="http://www.w3.org/2000/svg"
   xmlns:sodipodi="http://sodipodi.sourceforge.net/DTD/sodipodi-0.dtd"
   xmlns:inkscape="http://www.inkscape.org/namespaces/inkscape"
   xml:space="preserve"
   width="333.20856"
   height="339.19"
   version="1.1"
   style="clip-rule:evenodd;fill-rule:evenodd;image-rendering:optimizeQuality;shape-rendering:geometricPrecision;text-rendering:geometricPrecision"
   viewBox="0 0 6664171.1 6783800.1"
   id="svg49"
   sodipodi:docname="logo2.svg"
   inkscape:version="0.92.4 (5da689c313, 2019-01-14)"><metadata
   id="metadata53"><rdf:RDF><cc:Work
       rdf:about=""><dc:format>image/svg+xml</dc:format><dc:type
         rdf:resource="http://purl.org/dc/dcmitype/StillImage" /><dc:title></dc:title></cc:Work></rdf:RDF></metadata><sodipodi:namedview
   pagecolor="#ffffff"
   bordercolor="#666666"
   borderopacity="1"
   objecttolerance="10"
   gridtolerance="10"
   guidetolerance="10"
   inkscape:pageopacity="0"
   inkscape:pageshadow="2"
   inkscape:window-width="3840"
   inkscape:window-height="2080"
   id="namedview51"
   showgrid="false"
   inkscape:zoom="2.4869267"
   inkscape:cx="535.91154"
   inkscape:cy="43.987269"
   inkscape:window-x="3829"
   inkscape:window-y="-11"
   inkscape:window-maximized="1"
   inkscape:current-layer="svg49"
   units="px"
   scale-x="20000"
   inkscape:pagecheckerboard="false"
   fit-margin-top="0"
   fit-margin-left="0"
   fit-margin-right="0"
   fit-margin-bottom="0" />
 <defs
   id="defs9">
  <style
   type="text/css"
   id="style2">
   <![CDATA[
    .str0 {stroke:#0098DA;stroke-width:100000;stroke-miterlimit:22.9256}
    .str3 {stroke:#0098DA;stroke-width:500000;stroke-miterlimit:22.9256}
    .str2 {stroke:#0098DA;stroke-width:20000;stroke-miterlimit:22.9256}
    .str1 {stroke:#0098DA;stroke-width:150000;stroke-linecap:round;stroke-linejoin:round;stroke-miterlimit:22.9256}
    .fil0 {fill:none}
    .fil1 {fill:#0098DA}
    .fil2 {fill:url(#id0);fill-rule:nonzero}
   ]]>
  </style>
  <linearGradient
   id="id0"
   gradientUnits="userSpaceOnUse"
   x1="9094758"
   y1="21043340"
   x2="17488640"
   y2="12649460">
   <stop
   offset="0"
   style="stop-opacity:1; stop-color:#D15938"
   id="stop4" />
   <stop
   offset="1"
   style="stop-opacity:1; stop-color:#F5BA36"
   id="stop6" />
  </linearGradient>
 </defs>
 <g
   id="Layer_x0020_1"
   transform="matrix(0.5,0,0,0.5,-1912687.7,-3570575.9)">
  <metadata
   id="CorelCorpID_0Corel-Layer" />
  <path
   class="fil0 str0"
   d="m 10677520,10782580 -622390,1453140 M 7514540,10731450 5156170,12093290 m -459290,4829430 -76580,-1586160 922040,-212760 -1371560,-1504220 1338530,322410 m -665790,3071020 649980,-1939360 m 3094800,1005160 -2353640,668020 -162550,1084230 -1485650,-890660 1586270,-254030 m -630390,-1562570 713780,1579160 1294930,-1417640 m 2561210,-3059240 369130,2074060 -1804110,-905010 2130,2643700 -1130250,-845340 1083760,-1780850 -1865230,-1145030 37860,1305900 -1741500,-1562890 m 478290,3113180 45770,-1164270 -524060,-1948910 1675040,235720 829550,-1468930 -1546140,-1313770 2926030,544850 -116050,-1709970 1275210,1558690 894240,-2282860 591310,2522620 615270,-1907330 541300,1352350 -4270,2427930 -1113310,-1828120 -984470,660750 -1635210,-797350 -1371000,742100 1065410,2612790 1348170,-1124370 -2442110,-1371460 3004600,-18290 693630,1485440 1374220,-321870 -2189620,2237080 769050,-1830640 m 2739050,-3681580 -1254140,807590 1629260,813510 -340650,-1628550 z m -7258360,4862100 783830,1643320 -1908290,-1315440 z m 2202940,-3588010 1159160,-151280 1501140,191410 m -1496570,2177460 1198990,105330"
   id="path12"
   inkscape:connector-curvature="0"
   style="fill:none;stroke:#0098da;stroke-width:100000;stroke-miterlimit:22.92560005" />
  <circle
   class="fil1 str1"
   transform="rotate(-2.2410086,256493940,-253297240)"
   r="218280"
   id="circle14"
   cx="0"
   cy="0"
   style="fill:#0098da;stroke:#0098da;stroke-width:150000;stroke-linecap:round;stroke-linejoin:round;stroke-miterlimit:22.92560005" />
  <circle
   class="fil1 str1"
   transform="matrix(1.8713,-0.0732294,0.0732294,1.8713,12721500,9541600)"
   r="218280"
   id="circle16"
   cx="0"
   cy="0"
   style="fill:#0098da;stroke:#0098da;stroke-width:150000;stroke-linecap:round;stroke-linejoin:round;stroke-miterlimit:22.92560005" />
  <circle
   class="fil1 str2"
   transform="matrix(1.31645,-0.0515166,0.0515166,1.31645,11260400,12327000)"
   r="158750"
   id="circle18"
   cx="0"
   cy="0"
   style="fill:#0098da;stroke:#0098da;stroke-width:20000;stroke-miterlimit:22.92560005" />
  <ellipse
   class="fil1 str1"
   transform="matrix(0.999235,-0.039103,0.0344067,0.879228,6294540,16658400)"
   rx="245570"
   ry="273690"
   id="ellipse20"
   cx="0"
   cy="0"
   style="fill:#0098da;stroke:#0098da;stroke-width:150000;stroke-linecap:round;stroke-linejoin:round;stroke-miterlimit:22.92560005" />
  <circle
   class="fil1 str1"
   transform="matrix(1.92843,-0.0754652,0.0754652,1.92843,7549170,15193500)"
   r="218280"
   id="circle22"
   cx="0"
   cy="0"
   style="fill:#0098da;stroke:#0098da;stroke-width:150000;stroke-linecap:round;stroke-linejoin:round;stroke-miterlimit:22.92560005" />
  <circle
   class="fil1 str1"
   transform="rotate(-2.2410086,350448760,-166925220)"
   r="218280"
   id="circle24"
   cx="0"
   cy="0"
   style="fill:#0098da;stroke:#0098da;stroke-width:150000;stroke-linecap:round;stroke-linejoin:round;stroke-miterlimit:22.92560005" />
  <circle
   class="fil1 str1"
   transform="rotate(-2.2410086,389392150,-134118990)"
   r="218280"
   id="circle26"
   cx="0"
   cy="0"
   style="fill:#0098da;stroke:#0098da;stroke-width:150000;stroke-linecap:round;stroke-linejoin:round;stroke-miterlimit:22.92560005" />
  <circle
   class="fil1 str1"
   transform="matrix(0.617312,-0.0241572,0.0241572,0.617312,5588110,13959500)"
   r="218280"
   id="circle28"
   cx="0"
   cy="0"
   style="fill:#0098da;stroke:#0098da;stroke-width:150000;stroke-linecap:round;stroke-linejoin:round;stroke-miterlimit:22.92560005" />
  <circle
   class="fil1 str1"
   transform="matrix(0.617312,-0.0241572,0.0241572,0.617312,6739090,12246300)"
   r="218280"
   id="circle30"
   cx="0"
   cy="0"
   style="fill:#0098da;stroke:#0098da;stroke-width:150000;stroke-linecap:round;stroke-linejoin:round;stroke-miterlimit:22.92560005" />
  <circle
   class="fil1 str1"
   transform="matrix(0.617312,-0.0241572,0.0241572,0.617312,10055100,12235700)"
   r="218280"
   id="circle32"
   cx="0"
   cy="0"
   style="fill:#0098da;stroke:#0098da;stroke-width:150000;stroke-linecap:round;stroke-linejoin:round;stroke-miterlimit:22.92560005" />
  <circle
   class="fil1 str1"
   transform="matrix(0.617312,-0.0241572,0.0241572,0.617312,8948540,10008500)"
   r="218280"
   id="circle34"
   cx="0"
   cy="0"
   style="fill:#0098da;stroke:#0098da;stroke-width:150000;stroke-linecap:round;stroke-linejoin:round;stroke-miterlimit:22.92560005" />
  <circle
   class="fil1 str1"
   transform="matrix(0.769088,-0.0300967,0.0300967,0.769088,11600400,10090000)"
   r="218280"
   id="circle36"
   cx="0"
   cy="0"
   style="fill:#0098da;stroke:#0098da;stroke-width:150000;stroke-linecap:round;stroke-linejoin:round;stroke-miterlimit:22.92560005" />
  <circle
   class="fil1 str1"
   transform="rotate(-2.2410086,346768020,-215123970)"
   r="218280"
   id="circle38"
   cx="0"
   cy="0"
   style="fill:#0098da;stroke:#0098da;stroke-width:150000;stroke-linecap:round;stroke-linejoin:round;stroke-miterlimit:22.92560005" />
  <circle
   class="fil1 str1"
   transform="matrix(1.52657,-0.0597391,0.0597391,1.52657,7568640,10777400)"
   r="218280"
   id="circle40"
   cx="0"
   cy="0"
   style="fill:#0098da;stroke:#0098da;stroke-width:150000;stroke-linecap:round;stroke-linejoin:round;stroke-miterlimit:22.92560005" />
  <circle
   class="fil1 str1"
   transform="rotate(-2.2410086,281479630,-266794570)"
   r="218280"
   id="circle42"
   cx="0"
   cy="0"
   style="fill:#0098da;stroke:#0098da;stroke-width:150000;stroke-linecap:round;stroke-linejoin:round;stroke-miterlimit:22.92560005" />
  <path
   class="fil0 str3"
   d="m 4620300,15336560 c -479360,1524740 360760,2379830 2218080,2718690 l 3785290,-3767320 c 1261760,-1255770 2523510,-2511540 3785270,-3767310 123670,-1613510 -509300,-2471030 -2058960,-2412700 -1356910,-1218050 -2464300,-702210 -3517500,190600 -2490330,93210 -3589750,1447440 -3728270,3672840 -1230880,1191100 -1313140,2307700 -483910,3365200 z"
   id="path44"
   inkscape:connector-curvature="0"
   style="fill:none;stroke:#0098da;stroke-width:500000;stroke-miterlimit:22.92560005" />
  <path
   class="fil2"
   d="m 9976940,16447170 -398690,398680 c 822040,690130 1385860,605540 1501810,596670 205100,-15720 278890,24800 326170,143940 47280,119150 -23880,284470 -134510,312930 -110630,28480 -965240,239470 -2051000,-696010 l -1626420,1626420 66710,66690 690740,-464280 c 83860,-56470 189410,-55720 270680,-6840 l 782010,402590 c 85060,43720 134610,129270 136410,218660 l 19760,972480 560330,139370 442530,-745270 c 49250,-82800 138500,-127070 228470,-122920 l 879400,-18510 c 88230,-1720 166730,42250 212910,110150 l 180,-120 537500,794220 553440,-117580 34980,-912950 c 3390,-87780 51550,-163250 121610,-205380 l -450,-750 797140,-476380 c 85060,-51030 188130,-45980 266210,4420 l 751280,438550 405110,-405110 -444360,-761230 c -47880,-82070 -44040,-180040 1550,-256150 l -180,-100 476390,-797160 c 49300,-82180 138120,-126070 227590,-121990 l 891500,-34140 117570,-553430 -794210,-537510 c -76560,-51970 -115410,-138710 -109790,-224850 l 18630,-884420 c 1750,-90130 50720,-168250 122840,-211220 l -290,-470 745280,-442520 -139370,-560340 -972510,-19680 c -98630,-1920 -182900,-60400 -222450,-143880 l -406540,-789720 c -43350,-84350 -34380,-181790 15010,-255320 l -400,-260 464280,-690750 -66690,-66690 -1054510,1054500 c 1070240,1209390 966560,2540740 966280,2544760 -9620,138840 -129990,243600 -268820,233980 -138820,-9620 -243590,-129970 -233960,-268810 240,-3390 86690,-1111390 -820760,-2152670 l -998730,998710 c 304410,375480 456630,833340 456640,1291200 -20,525440 -200460,1050900 -601330,1451780 -400880,400880 -926360,601330 -1451790,601330 -457870,0 -915720,-152220 -1291180,-456620 z m 3765200,-1539600 c -14230,-138070 86170,-261550 224220,-275790 138060,-14220 261550,86190 275760,224250 390,3980 156410,1378990 -1142350,2441620 -107290,88090 -265690,72500 -353760,-34810 -88070,-107300 -72490,-265690 34820,-353760 1087890,-890100 961630,-1998310 961310,-2001510 z m -419140,2731490 c 92290,-103850 251320,-113190 355130,-20910 103850,92310 113210,251320 20920,355140 -3260,3650 -1104960,1279270 -3707070,724890 -135740,-28840 -222430,-162300 -193580,-298050 28840,-135730 162310,-222430 298040,-193580 2312720,492740 3223860,-564480 3226560,-567490 z m -6263510,1012460 1976350,-1976350 755190,-755190 680,700 2790,-2780 c 99620,-96550 258640,-94030 355160,5580 l 12590,13010 c 23560,24290 -23980,-25150 10610,9440 302460,302450 698880,453680 1095250,453680 396390,0 792800,-151230 1095260,-453690 302460,-302460 453680,-698860 453700,-1095250 -30,-396370 -151240,-792800 -453700,-1095250 -8580,-8590 -11990,-12100 -12630,-12900 -4540,-3970 -9010,-8080 -13310,-12380 -98460,-98460 -98470,-258080 -10,-356560 l 2759410,-2759390 c 98450,-98460 258090,-98460 356540,0 l 391490,391490 -160,170 c 83640,83460 99270,217100 30800,318770 l -497380,740020 273490,531240 1015090,20560 c 110620,2160 210580,77660 238830,190100 l 226720,911460 c 36390,109840 -6950,233990 -110490,295570 l -786010,466720 -13030,618820 821020,555620 -210,280 c 81970,55680 126520,157260 104650,260160 l -193390,910360 -360,-80 c -23220,109710 -118500,193990 -235710,198540 l -971600,37200 -330710,553400 458570,785540 c 67000,98160 56970,233100 -30130,320200 l -679220,679220 -380,-360 c -78820,78910 -203740,98190 -304640,39350 l -800720,-467430 -553400,330720 -36620,956610 c 2590,118300 -79070,225540 -199050,251060 l -895920,190310 c -101000,27740 -212760,-9890 -274870,-101380 l -555620,-821000 -618820,13020 -466700,786010 -540,-310 c -55310,93050 -166960,142970 -277320,115230 l -919550,-228770 c -112180,-23400 -197420,-121760 -199740,-241190 l -20550,-1015120 -531270,-273480 -730420,490930 c -98720,73470 -238940,65400 -328520,-24190 l -391490,-391490 c -98460,-98460 -98460,-258080 0,-356550 z m 5297620,-4903670 -2690,-2230 c 4550,4190 10630,9960 2690,2230 z"
   id="path46"
   style="fill:url(#id0);fill-rule:nonzero"
   inkscape:connector-curvature="0" />
 </g>

</svg>